<svg width="428" height="474" viewBox="0 0 428 474" fill="none" xmlns="http://www.w3.org/2000/svg">
<path opacity="0.5" d="M-252.99 530.063C173.948 507.289 161.732 507.693 348.554 544.248C1001.27 671.922 1149.92 1033.77 1385.24 904.536M-252.415 521.937C90.0987 506.3 148.484 502.723 256.088 519.337C282.762 523.518 312.129 529.256 349.195 536.569C492.705 564.861 610.954 606.7 712.828 650.541C1067.45 802.312 1202.83 993.554 1385.71 897.152M-251.838 513.799C91.344 500.761 147.884 496.74 256.663 512.082C283.547 515.872 312.93 521.55 349.825 528.888C492.644 557.282 609.52 601.299 712.034 645.748C1063.83 796.776 1203.8 981.894 1386.31 889.764M-251.263 505.672C92.578 495.208 147.176 490.897 257.225 504.827C284.318 508.25 313.732 513.844 350.465 521.221C492.585 549.69 607.981 596.186 711.131 640.948C1059.71 792.151 1204.7 970.228 1386.8 882.381M-250.687 497.534C93.8103 489.68 146.519 485.033 257.8 497.572C285.101 500.642 314.473 506.134 351.106 513.541C492.525 542.098 606.513 590.93 710.264 636.15C1055.85 786.955 1205.61 958.564 1387.33 874.988M-250.111 489.408C95.0192 484.138 145.85 479.156 258.363 490.305C285.872 493.02 315.334 498.445 351.748 505.861C492.469 534.457 605.052 585.576 709.397 631.352C1052.07 781.69 1206.54 946.901 1387.85 867.595M-249.535 481.269C96.2888 478.6 145.164 473.363 258.935 483.099C286.639 485.459 316.144 490.789 352.385 498.23C492.402 526.963 603.584 580.321 708.526 626.615C1048.25 776.485 1207.46 935.298 1388.37 860.324M-248.96 473.143C97.5211 473.072 144.612 466.008 259.502 475.771C287.364 478.141 316.951 483.009 353.031 490.489C492.359 519.31 602.125 574.93 707.653 621.731C1044.41 771.106 1208.37 923.536 1388.9 852.797M-248.383 465.005C98.7656 467.545 143.808 461.706 260.075 468.54C288.183 470.191 317.751 475.328 353.658 482.833C492.274 511.741 600.66 569.638 706.785 616.957C1040.66 765.831 1209.3 911.861 1389.42 845.428M-247.808 456.878C99.9997 461.992 143.123 455.889 260.65 461.286C288.954 462.581 318.55 467.647 354.3 475.153C492.217 504.1 599.196 564.321 705.918 612.16C1036.87 760.517 1210.21 900.233 1389.94 838.047M-247.232 448.74C101.229 456.501 142.438 450.072 261.213 454.018C289.724 454.971 319.354 459.916 354.941 467.474C492.154 496.557 597.732 559.004 705.039 607.361C1033.08 755.178 1211.13 888.57 1390.47 830.654M-246.656 440.614C102.466 450.912 141.716 444.264 261.788 446.764C290.494 447.362 320.167 452.211 355.581 459.806C492.092 489.002 596.277 553.736 704.172 602.563C1029.3 749.84 1212.05 876.906 1390.99 823.237M-246.08 432.475C103.711 445.372 141.042 438.461 262.35 439.508C291.264 439.764 320.969 444.506 356.223 452.126C492.034 481.385 594.817 548.371 703.304 597.79C1025.52 744.514 1212.96 865.266 1391.51 815.905M-245.505 424.349C104.944 439.832 140.368 432.657 262.925 432.254C292.034 432.154 321.771 436.8 356.852 444.446C491.975 473.793 593.354 543.041 702.437 592.992C1021.75 739.14 1213.89 853.603 1392.03 808.512M-244.928 416.211C106.177 434.304 139.682 426.864 263.488 424.986C292.771 424.506 322.572 429.094 357.492 436.778C491.903 466.201 591.903 537.713 701.56 588.169C1017.99 733.741 1214.8 841.902 1392.56 801.106M-244.353 408.084C107.41 428.764 138.983 421.071 264.063 417.732C293.562 416.947 323.373 421.401 358.133 429.098C491.855 458.61 590.44 532.384 700.693 583.371C1014.21 728.342 1215.78 830.242 1393.08 793.713M-243.777 399.946C108.655 423.224 138.296 415.278 264.625 410.477C294.331 409.349 324.174 413.695 358.775 421.418C491.795 451.03 588.941 527.052 699.851 578.575C1010.49 722.946 1216.65 818.575 1393.63 786.334M-243.201 391.82C109.889 417.684 137.596 409.497 265.2 403.222C295.101 401.752 324.985 406.026 359.416 413.739C491.735 443.438 587.527 521.726 698.96 573.775C1006.7 717.522 1217.56 806.911 1394.13 778.94M-242.625 383.681C111.085 412.141 136.909 403.717 265.786 395.968C295.895 394.156 325.814 398.286 360.133 406.015C491.755 435.765 586.142 516.329 698.158 568.92C1003.03 712.044 1218.56 795.191 1394.73 771.49M-242.049 375.543C112.367 406.604 136.208 397.948 266.338 388.7C296.64 386.557 326.591 390.578 360.71 398.392C491.616 428.254 584.615 511.044 697.21 564.227C999.209 706.666 1219.39 783.62 1395.17 764.166M-241.473 367.416C113.6 401.064 135.52 392.18 266.949 381.448C297.458 378.962 327.441 382.876 361.351 390.712C491.581 420.664 583.189 505.705 696.369 559.419C995.497 701.259 1220.34 771.958 1395.72 756.811M-240.897 359.278C114.832 395.548 134.819 386.411 267.462 374.189C298.131 371.346 328.182 375.166 361.957 383.018C491.449 413.054 581.693 500.337 695.458 554.557C991.72 695.737 1221.23 760.231 1396.21 749.367M-240.325 351.201C116.074 390.046 134.163 380.706 268.034 366.983C298.933 363.812 329.004 367.51 362.605 375.412C491.426 405.465 580.254 495.009 694.602 549.772C987.998 690.292 1222.15 748.579 1396.74 742.011M-239.746 343.013C117.311 384.456 133.441 374.899 268.612 359.68C299.705 356.178 329.809 359.756 363.25 367.684C491.365 397.897 578.852 489.672 693.735 544.974C984.28 684.811 1223.07 736.916 1397.27 734.606M-239.17 334.887C118.544 378.916 132.739 369.142 269.187 352.413C300.474 348.581 330.61 352.062 363.877 360.028C491.303 390.33 577.353 484.34 692.867 540.201C980.548 679.341 1223.98 725.276 1397.79 727.249M-238.595 326.761C119.777 373.388 132.049 363.399 269.749 345.17C301.243 340.996 331.407 344.417 364.518 352.348C491.245 382.725 575.905 478.975 691.989 535.39C976.831 673.835 1224.91 713.601 1398.31 719.844M-238.019 318.622C121.023 367.836 131.36 357.643 270.324 337.903C302.013 333.398 332.213 336.651 365.161 344.656C491.185 375.134 574.458 473.598 691.123 530.58C973.114 668.317 1225.82 701.924 1398.84 712.439M-237.442 310.484C122.255 362.308 130.658 351.898 270.887 330.648C302.781 325.813 333.015 328.945 365.802 336.976C491.126 367.529 573.009 468.245 690.252 525.843C969.382 662.859 1226.74 690.322 1399.36 705.119M-236.864 302.321C123.491 356.731 129.969 346.13 271.465 323.345C303.52 318.14 333.831 321.203 366.445 329.272C491.02 359.91 571.563 462.844 689.392 520.947C965.709 657.234 1227.67 678.585 1399.88 697.665M-236.291 294.219C124.734 351.229 129.276 340.435 272.025 316.126C304.319 310.63 334.63 313.534 367.083 321.629C491.006 352.358 570.125 457.504 688.51 516.185C962.003 651.741 1228.58 666.933 1400.41 690.284M-235.715 286.093C125.967 345.688 128.597 334.705 272.599 308.871C305.088 303.045 335.431 305.828 367.713 313.948C490.946 344.778 568.677 452.139 687.656 511.388C958.314 646.188 1229.54 655.259 1400.94 682.892M-235.139 277.955C127.151 340.145 127.942 328.976 273.162 301.616C305.808 295.456 336.233 298.122 368.412 306.309C490.944 337.227 567.3 446.803 686.835 506.63C954.671 640.675 1230.42 643.63 1401.51 675.539M-234.564 269.828C128.433 334.608 127.263 323.257 273.736 294.362C306.625 287.874 337.034 290.417 368.994 298.601C490.827 329.594 565.807 441.386 685.898 501.791C950.923 635.081 1231.34 631.893 1401.98 668.117M-233.987 261.69C129.678 329.068 126.523 317.523 274.3 287.094C307.394 280.289 337.847 282.724 369.636 290.921C490.767 322.002 564.36 436.009 685.031 496.993C947.235 629.503 1232.26 620.266 1402.5 660.724M-233.412 253.564C130.897 323.564 125.843 311.804 274.874 279.839C308.163 272.704 338.649 275.018 370.277 283.241C490.707 314.41 562.925 430.62 684.164 492.195C943.563 623.878 1233.17 608.602 1403.02 653.343M-232.836 245.425C132.144 318 125.163 306.098 275.437 272.584C308.931 265.119 339.451 267.312 370.917 275.574C490.635 306.829 561.491 425.231 683.298 487.397C939.873 618.337 1234.09 596.987 1403.55 645.95M-232.259 237.287C133.389 312.461 124.471 300.379 276.011 265.33C309.7 257.533 340.252 259.606 371.546 267.893C490.574 299.249 560.069 419.843 682.419 482.598C936.198 612.748 1235.01 585.274 1404.07 638.557M-231.684 229.16C134.622 306.92 123.787 294.722 276.586 258.075C310.481 249.949 341.054 251.901 372.188 260.213C490.516 291.645 558.695 414.459 681.552 477.8C932.536 607.148 1235.93 573.61 1404.59 631.176M-231.108 221.022C135.856 301.38 123.11 288.966 277.149 250.807C311.249 242.364 341.855 244.195 372.829 252.533C490.456 284.053 557.201 409.054 680.685 473.003C928.863 601.534 1236.85 561.935 1405.12 623.771M-230.532 212.896C137.101 295.84 122.429 283.26 277.724 243.553C312.015 234.815 342.669 236.49 373.469 244.866C490.396 276.473 555.779 403.666 679.818 468.205C925.202 595.922 1237.76 550.27 1405.64 616.391M-229.956 204.757C138.334 290.3 121.746 277.591 278.286 236.298C312.786 227.206 343.41 228.78 374.111 237.186C490.336 268.882 554.359 398.241 678.939 463.406C921.556 590.274 1238.69 538.607 1406.16 609.01M-229.381 196.631C139.605 284.738 121.08 271.849 278.824 229.053C313.517 219.63 344.235 221.088 374.703 229.515C490.276 261.29 552.939 392.829 678.075 458.572C917.898 584.625 1239.6 526.906 1406.69 601.58M-228.805 188.493C140.8 279.232 120.398 266.155 279.473 221.779C314.384 212.039 345.121 213.388 375.429 221.841C490.217 253.698 551.567 387.42 677.266 453.814C914.306 579.078 1240.58 515.283 1407.27 594.24M-228.229 180.366C142.045 273.693 119.729 260.462 279.987 214.52C315.091 204.462 345.862 205.678 376.009 214.157C490.157 246.106 550.099 381.992 676.388 449.016C910.663 573.381 1241.51 503.62 1407.79 586.847M-227.653 172.228C143.278 268.152 119.06 254.769 280.561 207.266C315.871 196.878 346.688 197.974 376.663 206.478C490.098 238.514 548.643 376.565 675.473 444.202C906.968 567.729 1242.37 491.952 1408.27 579.45M-227.078 164.102C144.511 262.612 118.378 249.075 281.136 200.011C316.651 189.305 347.489 190.268 377.304 198.799C490.035 230.958 547.286 371.108 674.594 439.404C903.323 562.069 1243.27 480.287 1408.78 572.069M-226.501 155.963C145.757 257.073 117.709 243.381 281.703 192.695C317.429 181.598 348.299 182.452 377.949 191.07C489.982 223.281 545.878 365.697 673.732 434.545C899.695 556.336 1244.2 468.55 1409.3 564.615M-225.926 147.837C146.963 251.567 117.039 237.7 282.274 185.489C318.2 174.148 349.092 174.856 378.578 183.389C489.918 215.75 544.471 360.261 672.873 429.809C896.082 550.738 1245.14 456.95 1409.85 557.297M-225.35 139.699C148.222 246.004 116.381 232.008 282.836 178.234C319.005 166.565 349.894 167.151 379.215 175.771C489.919 208.162 543.066 354.813 671.994 425.01C892.438 545.054 1246.04 445.309 1410.36 549.903M-224.774 131.572C149.455 240.464 115.711 226.327 283.411 170.979C319.748 158.991 350.708 159.446 379.892 168.106C489.786 200.577 541.672 349.365 671.115 420.211C888.807 539.369 1246.95 433.62 1410.87 542.546M-224.198 123.434C150.701 234.924 115.029 220.645 283.974 163.724C320.514 151.454 351.509 151.74 380.485 160.41C489.778 192.94 540.279 343.906 670.236 415.413C885.175 533.685 1247.86 421.956 1411.38 535.127M-223.626 115.356C151.93 229.433 114.379 215.015 284.545 156.506C321.293 143.882 352.307 144.083 381.086 152.789C489.675 185.443 538.835 338.492 669.317 410.66C881.517 528.036 1248.73 410.338 1411.86 527.781M-223.046 107.169C153.167 223.844 113.722 209.323 285.124 149.202C322.065 136.26 353.063 136.337 381.767 145.063C489.631 177.803 537.495 332.975 668.478 405.815C877.94 522.282 1249.68 398.627 1412.41 520.34M-222.471 99.0429C154.412 218.304 113.055 203.605 285.689 141.91C322.848 128.639 353.916 128.598 382.408 137.383C489.547 170.209 536.115 327.504 667.599 401.017C874.322 516.574 1250.58 386.962 1412.93 512.959M-221.896 90.9165C155.644 212.789 112.396 197.937 286.26 134.705C323.612 121.115 354.716 120.904 383.048 129.728C489.487 162.629 534.736 322.021 666.72 396.218C870.717 510.867 1251.51 375.287 1413.45 505.517M-221.318 82.7659C156.878 207.236 111.738 192.257 286.823 127.437C324.369 113.529 355.528 113.224 383.69 122.036C489.427 155.038 533.358 316.525 665.84 391.444C867.098 505.171 1252.42 363.647 1413.96 498.208M-220.743 74.6397C158.123 201.697 111.08 186.577 287.399 120.17C325.174 105.946 356.33 105.518 384.331 114.356C489.341 147.481 531.98 311.03 665.023 386.625C863.553 499.468 1253.38 351.961 1414.53 490.794M-220.165 66.4768C159.419 196.136 110.436 180.861 287.963 112.891C325.94 98.3975 357.131 97.8122 384.984 106.689C489.32 139.854 530.622 305.597 664.168 381.828C859.977 493.702 1254.31 340.299 1415.07 483.402M-219.591 58.375C160.59 190.616 109.775 175.23 288.533 105.697C326.719 90.8375 357.882 90.1398 385.598 99.0446C489.2 132.258 529.266 299.968 663.277 377.028C856.385 487.971 1255.21 328.634 1415.58 476.02M-219.015 50.2366C161.823 185.076 109.116 169.562 289.101 98.3685C327.505 83.1797 358.737 82.364 386.245 91.2916C489.191 124.645 527.853 294.458 662.413 372.194C852.797 482.192 1256.18 316.936 1416.06 468.587M-218.44 42.1103C163.029 179.571 108.602 164.248 289.675 91.114C328.304 75.6825 359.551 74.659 386.885 83.6239C489.131 117.053 526.549 288.943 661.549 367.359C849.22 476.425 1257.02 305.23 1416.59 461.171M-217.864 33.9718C164.3 174.008 107.936 158.518 290.236 83.883C329.073 68.0849 360.349 67.002 387.524 75.9808C489.069 109.498 525.171 283.448 660.677 362.634C845.577 470.74 1257.97 293.642 1417.12 453.852M-217.288 25.8456C165.534 168.468 107.258 152.775 290.835 76.6301C329.876 60.5389 361.176 59.2734 388.189 68.3027C489.009 101.906 523.857 277.908 659.794 357.885C842.067 465.052 1258.89 282.016 1417.64 446.508M-216.712 17.7072C166.779 162.929 106.58 147.032 291.349 69.3715C330.62 52.952 361.952 51.5905 388.794 60.6205C488.937 94.3254 522.483 272.351 658.931 353.038C838.505 459.25 1259.81 270.302 1418.18 439.079M-216.136 9.58089C168.012 157.388 105.891 141.264 291.948 62.1186C331.389 45.3668 362.705 43.8814 389.434 52.9529C488.877 86.7333 521.304 266.624 658.064 348.24C835.066 453.259 1260.73 258.639 1418.72 431.687M-215.56 1.44245C169.245 151.848 105.211 135.558 292.511 54.851C479.812 -25.8559 482.985 239.139 657.186 343.429C831.388 447.719 1261.65 246.975 1419.24 424.293" stroke="url(#paint0_radial_1346_23364)" stroke-miterlimit="10"/>
<defs>
<radialGradient id="paint0_radial_1346_23364" cx="0" cy="0" r="1" gradientUnits="userSpaceOnUse" gradientTransform="translate(1638.65 -974.316) rotate(100.771) scale(1954.1 3912.87)">
<stop stop-color="#BFD3FB"/>
<stop offset="1" stop-color="#A0BDF9"/>
</radialGradient>
</defs>
</svg>
